<?xml version="1.0" encoding="UTF-8"?>
<svg xmlns="http://www.w3.org/2000/svg" id="outline" viewBox="0 0 512 512" width="512" height="512"><path  d="M80,400a7.99341,7.99341,0,0,0,4.11572-1.14014l40-24A8.0001,8.0001,0,0,0,128,368V335.43408l11.75977,7.3501a7.99545,7.99545,0,0,0,8.11816.21289c.08105-.04492.1521-.10181.23108-.14917l.0072.012,33.55347-20.13208,5.89282,3.92847a7.99651,7.99651,0,0,0,8.2124.397c.11621-.06225.21973-.14062.332-.208l.00879.01465,40-24A8.0001,8.0001,0,0,0,240,296V240a8.00055,8.00055,0,0,0-3.75977-6.78418L192,205.56567V112a8.0001,8.0001,0,0,0-3.88428-6.85986l-40-24a7.99715,7.99715,0,0,0-8.23144,0l-120,72A8.0001,8.0001,0,0,0,16,160V360a7.99919,7.99919,0,0,0,4.03076,6.9458l56,32,.0011-.002c.0094.00537.01746.0122.02673.01758A7.99391,7.99391,0,0,0,80,400Zm32-36.5293L88,377.87061V310.43408l24,15Zm40-41.60034V302.94824l14.93872,9.959Zm48-15.99963V268.5293l24-14.4V291.4707ZM119.31738,160.13916,176,126.12939v69.43628ZM144,97.32959,168.45117,112,99.88428,153.14014a8.00027,8.00027,0,0,0-.12451,13.644L216.68286,239.861l-24.61743,14.77051L39.37134,160.10657ZM32,174.36133l152,94.09534v36.59509l-35.5625-23.708A8,8,0,0,0,136,288v33.56592l-51.75977-32.3501A8.00044,8.00044,0,0,0,72,296v82.2146L32,355.35742Z"/><path d="M112,449.3761V400H96v49.3761a24,24,0,1,0,16,0ZM104,480a8,8,0,1,1,8-8A8.00917,8.00917,0,0,1,104,480Z"/><path d="M168,449.3761V432a7.99943,7.99943,0,0,0-3.5625-6.65625L144,411.71875V384H128v32a7.99943,7.99943,0,0,0,3.5625,6.65625L152,436.28125V449.3761a24,24,0,1,0,16,0ZM160,480a8,8,0,1,1,8-8A8.00917,8.00917,0,0,1,160,480Z"/><path d="M208,408a23.88815,23.88815,0,0,0-15.22485,5.46167L176,396.68652V344H160v56a7.99877,7.99877,0,0,0,2.34326,5.65674l22.04907,22.04907A23.99725,23.99725,0,1,0,208,408Zm0,32a8,8,0,1,1,8-8A8.00917,8.00917,0,0,1,208,440Z"/><path d="M304,288a24.03765,24.03765,0,0,0-16-22.6239V240a8.00033,8.00033,0,0,0-1.75293-4.99756l-32-40A7.99951,7.99951,0,0,0,248,192H216v16h28.15479L272,242.80615v22.57A23.99854,23.99854,0,1,0,304,288Zm-32,0a8,8,0,1,1,8,8A8.00917,8.00917,0,0,1,272,288Z"/><path d="M264,449.3761V383.99854H248V449.3761a24,24,0,1,0,16,0ZM256,480a8,8,0,1,1,8-8A8.00917,8.00917,0,0,1,256,480Z"/><path d="M248,62.6239v46.06165L228.686,128H208v16h24a7.99877,7.99877,0,0,0,5.65674-2.34326l24-24.001A7.9996,7.9996,0,0,0,264,111.999V62.6239a24,24,0,1,0-16,0ZM256,32a8,8,0,1,1-8,8A8.00917,8.00917,0,0,1,256,32Z"/><path d="M184,62.6239V80a8.00072,8.00072,0,0,0,3.88379,6.85986l40,24,8.23242-13.71972L200,75.4707V62.6239a24,24,0,1,0-16,0ZM192,32a8,8,0,1,1-8,8A8.00917,8.00917,0,0,1,192,32Z"/><path d="M264,344V328H240a7.99924,7.99924,0,0,0-7.15527,4.42236L222.59192,352.928a24.03813,24.03813,0,1,0,13.15881,9.459L244.94434,344Zm-48,40a8,8,0,1,1,8-8A8.00917,8.00917,0,0,1,216,384Z"/><path d="M280,80v44.68652L244.68652,160H208v16h40a7.99877,7.99877,0,0,0,5.65674-2.34326l40-40A7.99877,7.99877,0,0,0,296,128V83.31348l21.65894-21.65894a24.009,24.009,0,1,0-11.31348-11.31348l-24.0022,24.0022A7.99877,7.99877,0,0,0,280,80Zm48-48a8,8,0,1,1-8,8A8.00917,8.00917,0,0,1,328,32Z"/><path d="M492.24023,153.21582l-128-80a7.99877,7.99877,0,0,0-8.356-.07568l-40,24A8.0001,8.0001,0,0,0,312,104V272a7.99927,7.99927,0,0,0,3.2002,6.3999l22.666,16.99951-54.10644,33.81641A8.00055,8.00055,0,0,0,280,336V440a7.99927,7.99927,0,0,0,3.2002,6.3999l32,24a8,8,0,0,0,9.01074.40235l168-104A8.00092,8.00092,0,0,0,496,360V160A8.00055,8.00055,0,0,0,492.24023,153.21582ZM328,268V118.57324l65.34375,41.58252-13.78125,9.188A7.99943,7.99943,0,0,0,376,176v60l-28.7998,21.6001A7.99927,7.99927,0,0,0,344,264v16Zm28.24023,34.78418A8.00055,8.00055,0,0,0,360,296V268l28.7998-21.6001A7.99927,7.99927,0,0,0,392,240V180.28125l20.4375-13.625a7.99954,7.99954,0,0,0-.14258-13.40527L335.21533,104.2002l24.69922-14.81934L472.25684,159.5946l-60.14209,33.41224A7.9998,7.9998,0,0,0,408,200v60l-28.7998,21.6001A7.99927,7.99927,0,0,0,376,288v27.56592l-55.58875,34.74267-18.27746-13.708ZM296,351.99976l16,12V448l-16-12Zm32,97.63879V364.43408l60.24023-37.6499A8.00055,8.00055,0,0,0,392,320V292l28.7998-21.6001A7.99927,7.99927,0,0,0,424,264V204.707l56-31.111V355.54346Z"/></svg>
